<mxfile host="app.diagrams.net" agent="Mozilla/5.0 (Windows NT 10.0; Win64; x64) AppleWebKit/537.36 (KHTML, like Gecko) Chrome/136.0.0.0 Safari/537.36" version="27.1.1">
  <diagram name="Page-1" id="taYUtSJ_4CDuhA6wjiIW">
    <mxGraphModel dx="3901" dy="1802" grid="1" gridSize="10" guides="1" tooltips="1" connect="1" arrows="1" fold="1" page="1" pageScale="1" pageWidth="850" pageHeight="1100" math="0" shadow="0" adaptiveColors="auto">
      <root>
        <mxCell id="0" />
        <mxCell id="1" parent="0" />
        <mxCell id="h_4dqQD72bOemCukOD2A-11" value="&lt;h1 style=&quot;margin-top: 0px;&quot;&gt;Level 4&lt;/h1&gt;&lt;div&gt;Features a pick your path, with one being easier, while the other one are harder.&lt;/div&gt;&lt;div&gt;Mini games included&lt;/div&gt;" style="text;html=1;whiteSpace=wrap;overflow=hidden;rounded=0;" parent="1" vertex="1">
          <mxGeometry x="-620" y="991.45" width="620" height="310" as="geometry" />
        </mxCell>
        <mxCell id="E4qFbeiB4ODEOkEXqFHY-1" value="&lt;h1 style=&quot;margin-top: 0px;&quot;&gt;&lt;span style=&quot;background-color: transparent; color: light-dark(rgb(0, 0, 0), rgb(255, 255, 255));&quot;&gt;UI&lt;/span&gt;&lt;/h1&gt;" style="text;html=1;whiteSpace=wrap;overflow=hidden;rounded=0;align=center;" parent="1" vertex="1">
          <mxGeometry x="35" y="1010" width="180" height="40" as="geometry" />
        </mxCell>
        <mxCell id="E4qFbeiB4ODEOkEXqFHY-2" value="" style="rounded=0;whiteSpace=wrap;html=1;" parent="1" vertex="1">
          <mxGeometry x="115" y="1050" width="360" height="240" as="geometry" />
        </mxCell>
        <mxCell id="E4qFbeiB4ODEOkEXqFHY-3" value="" style="rounded=0;whiteSpace=wrap;html=1;" parent="1" vertex="1">
          <mxGeometry x="125" y="1060" width="120" height="10" as="geometry" />
        </mxCell>
        <mxCell id="E4qFbeiB4ODEOkEXqFHY-4" value="" style="rounded=0;whiteSpace=wrap;html=1;fillColor=#60a917;fontColor=#ffffff;strokeColor=none;movable=1;resizable=1;rotatable=1;deletable=1;editable=1;locked=0;connectable=1;" parent="1" vertex="1">
          <mxGeometry x="126" y="1061" width="87" height="8" as="geometry" />
        </mxCell>
        <mxCell id="E4qFbeiB4ODEOkEXqFHY-5" value="" style="ellipse;whiteSpace=wrap;html=1;aspect=fixed;strokeWidth=4;" parent="1" vertex="1">
          <mxGeometry x="130" y="1253" width="30" height="30" as="geometry" />
        </mxCell>
        <mxCell id="E4qFbeiB4ODEOkEXqFHY-7" value="&lt;font face=&quot;Tahoma&quot;&gt;8.2&lt;/font&gt;" style="text;html=1;align=center;verticalAlign=middle;whiteSpace=wrap;rounded=0;" parent="1" vertex="1">
          <mxGeometry x="115" y="1251" width="60" height="30" as="geometry" />
        </mxCell>
        <mxCell id="E4qFbeiB4ODEOkEXqFHY-8" value="minimap overlay" style="rounded=0;whiteSpace=wrap;html=1;" parent="1" vertex="1">
          <mxGeometry x="388" y="1057" width="80" height="50" as="geometry" />
        </mxCell>
        <mxCell id="E4qFbeiB4ODEOkEXqFHY-9" value="" style="shape=flexArrow;endArrow=classic;html=1;rounded=0;width=5.714285714285714;endSize=3.095238095238095;endWidth=11.564625850340136;" parent="1" edge="1">
          <mxGeometry width="50" height="50" relative="1" as="geometry">
            <mxPoint x="65" y="1265" as="sourcePoint" />
            <mxPoint x="115" y="1265" as="targetPoint" />
          </mxGeometry>
        </mxCell>
        <mxCell id="E4qFbeiB4ODEOkEXqFHY-10" value="" style="shape=flexArrow;endArrow=classic;html=1;rounded=0;width=5.714285714285714;endSize=3.095238095238095;endWidth=11.564625850340136;" parent="1" edge="1">
          <mxGeometry width="50" height="50" relative="1" as="geometry">
            <mxPoint x="65" y="1065" as="sourcePoint" />
            <mxPoint x="115" y="1064.76" as="targetPoint" />
          </mxGeometry>
        </mxCell>
        <mxCell id="E4qFbeiB4ODEOkEXqFHY-11" value="&lt;div&gt;&lt;font style=&quot;font-size: 8px;&quot;&gt;Ability&amp;nbsp;&lt;/font&gt;&lt;span style=&quot;font-size: 8px; background-color: transparent; color: light-dark(rgb(0, 0, 0), rgb(255, 255, 255));&quot;&gt;Cooldown&lt;/span&gt;&lt;/div&gt;" style="text;html=1;align=center;verticalAlign=middle;whiteSpace=wrap;rounded=0;" parent="1" vertex="1">
          <mxGeometry x="-15" y="1251" width="90" height="30" as="geometry" />
        </mxCell>
        <mxCell id="E4qFbeiB4ODEOkEXqFHY-12" value="&lt;div&gt;&lt;span style=&quot;font-size: 8px;&quot;&gt;Health bar&lt;/span&gt;&lt;/div&gt;" style="text;html=1;align=center;verticalAlign=middle;whiteSpace=wrap;rounded=0;" parent="1" vertex="1">
          <mxGeometry x="-15" y="1048" width="90" height="30" as="geometry" />
        </mxCell>
        <mxCell id="E4qFbeiB4ODEOkEXqFHY-19" value="" style="whiteSpace=wrap;html=1;aspect=fixed;" parent="1" vertex="1">
          <mxGeometry x="125" y="1077" width="23" height="23" as="geometry" />
        </mxCell>
        <mxCell id="E4qFbeiB4ODEOkEXqFHY-20" value="" style="whiteSpace=wrap;html=1;aspect=fixed;" parent="1" vertex="1">
          <mxGeometry x="158" y="1077" width="23" height="23" as="geometry" />
        </mxCell>
        <mxCell id="E4qFbeiB4ODEOkEXqFHY-21" value="" style="whiteSpace=wrap;html=1;aspect=fixed;" parent="1" vertex="1">
          <mxGeometry x="192" y="1077" width="23" height="23" as="geometry" />
        </mxCell>
        <mxCell id="E4qFbeiB4ODEOkEXqFHY-22" value="" style="shape=flexArrow;endArrow=classic;html=1;rounded=0;width=5.714285714285714;endSize=3.095238095238095;endWidth=11.564625850340136;" parent="1" edge="1">
          <mxGeometry width="50" height="50" relative="1" as="geometry">
            <mxPoint x="60" y="1091.8" as="sourcePoint" />
            <mxPoint x="110" y="1091.8" as="targetPoint" />
          </mxGeometry>
        </mxCell>
        <mxCell id="E4qFbeiB4ODEOkEXqFHY-23" value="&lt;span style=&quot;font-size: 8px;&quot;&gt;Level/Upgrades display&lt;/span&gt;" style="text;html=1;align=center;verticalAlign=middle;whiteSpace=wrap;rounded=0;" parent="1" vertex="1">
          <mxGeometry x="-35" y="1077" width="90" height="30" as="geometry" />
        </mxCell>
        <mxCell id="E4qFbeiB4ODEOkEXqFHY-24" value="" style="triangle;whiteSpace=wrap;html=1;rotation=-90;strokeColor=none;" parent="1" vertex="1">
          <mxGeometry x="137.20000000000005" y="1258.45" width="16.87" height="43" as="geometry" />
        </mxCell>
        <mxCell id="E4qFbeiB4ODEOkEXqFHY-25" value="&lt;div&gt;&lt;font style=&quot;font-size: 7px;&quot;&gt;player&lt;/font&gt;&lt;/div&gt;" style="shape=umlActor;verticalLabelPosition=bottom;verticalAlign=top;html=1;outlineConnect=0;rounded=0;" parent="1" vertex="1">
          <mxGeometry x="288.75" y="1157.5" width="12.5" height="25" as="geometry" />
        </mxCell>
        <mxCell id="uATIUZiZ8zpYJbapLqvB-1" value="" style="endArrow=none;html=1;rounded=0;" parent="1" edge="1">
          <mxGeometry width="50" height="50" relative="1" as="geometry">
            <mxPoint x="-640" y="760" as="sourcePoint" />
            <mxPoint x="-640" y="520" as="targetPoint" />
          </mxGeometry>
        </mxCell>
        <mxCell id="uATIUZiZ8zpYJbapLqvB-2" value="" style="endArrow=none;html=1;rounded=0;" parent="1" edge="1">
          <mxGeometry width="50" height="50" relative="1" as="geometry">
            <mxPoint x="-640" y="520" as="sourcePoint" />
            <mxPoint x="-400" y="520" as="targetPoint" />
          </mxGeometry>
        </mxCell>
        <mxCell id="uATIUZiZ8zpYJbapLqvB-3" value="" style="endArrow=none;html=1;rounded=0;" parent="1" edge="1">
          <mxGeometry width="50" height="50" relative="1" as="geometry">
            <mxPoint x="-640" y="760" as="sourcePoint" />
            <mxPoint x="-400" y="760" as="targetPoint" />
          </mxGeometry>
        </mxCell>
        <mxCell id="uATIUZiZ8zpYJbapLqvB-4" value="" style="endArrow=none;html=1;rounded=0;" parent="1" edge="1">
          <mxGeometry width="50" height="50" relative="1" as="geometry">
            <mxPoint x="-400" y="760" as="sourcePoint" />
            <mxPoint x="-400" y="680" as="targetPoint" />
          </mxGeometry>
        </mxCell>
        <mxCell id="uATIUZiZ8zpYJbapLqvB-5" value="" style="endArrow=none;html=1;rounded=0;" parent="1" edge="1">
          <mxGeometry width="50" height="50" relative="1" as="geometry">
            <mxPoint x="-400" y="600" as="sourcePoint" />
            <mxPoint x="-400" y="520" as="targetPoint" />
          </mxGeometry>
        </mxCell>
        <mxCell id="uATIUZiZ8zpYJbapLqvB-6" value="" style="endArrow=none;html=1;rounded=0;" parent="1" edge="1">
          <mxGeometry width="50" height="50" relative="1" as="geometry">
            <mxPoint x="-400" y="600" as="sourcePoint" />
            <mxPoint x="-320" y="600" as="targetPoint" />
          </mxGeometry>
        </mxCell>
        <mxCell id="uATIUZiZ8zpYJbapLqvB-7" value="" style="endArrow=none;html=1;rounded=0;" parent="1" edge="1">
          <mxGeometry width="50" height="50" relative="1" as="geometry">
            <mxPoint x="-400" y="680" as="sourcePoint" />
            <mxPoint x="-320" y="680" as="targetPoint" />
          </mxGeometry>
        </mxCell>
        <mxCell id="uATIUZiZ8zpYJbapLqvB-8" value="" style="endArrow=none;html=1;rounded=0;" parent="1" edge="1">
          <mxGeometry width="50" height="50" relative="1" as="geometry">
            <mxPoint x="-320" y="600" as="sourcePoint" />
            <mxPoint x="-200" y="520" as="targetPoint" />
          </mxGeometry>
        </mxCell>
        <mxCell id="uATIUZiZ8zpYJbapLqvB-9" value="" style="endArrow=none;html=1;rounded=0;" parent="1" edge="1">
          <mxGeometry width="50" height="50" relative="1" as="geometry">
            <mxPoint x="-200" y="760" as="sourcePoint" />
            <mxPoint x="-320" y="680" as="targetPoint" />
          </mxGeometry>
        </mxCell>
        <mxCell id="uATIUZiZ8zpYJbapLqvB-11" value="" style="endArrow=none;html=1;rounded=0;" parent="1" edge="1">
          <mxGeometry width="50" height="50" relative="1" as="geometry">
            <mxPoint x="-200" y="520" as="sourcePoint" />
            <mxPoint x="-80" y="520" as="targetPoint" />
          </mxGeometry>
        </mxCell>
        <mxCell id="uATIUZiZ8zpYJbapLqvB-12" value="" style="endArrow=none;html=1;rounded=0;" parent="1" edge="1">
          <mxGeometry width="50" height="50" relative="1" as="geometry">
            <mxPoint x="-200" y="760" as="sourcePoint" />
            <mxPoint x="-80" y="760" as="targetPoint" />
          </mxGeometry>
        </mxCell>
        <mxCell id="uATIUZiZ8zpYJbapLqvB-13" value="" style="endArrow=none;html=1;rounded=0;" parent="1" edge="1">
          <mxGeometry width="50" height="50" relative="1" as="geometry">
            <mxPoint x="-240" y="640" as="sourcePoint" />
            <mxPoint x="-200" y="600" as="targetPoint" />
          </mxGeometry>
        </mxCell>
        <mxCell id="uATIUZiZ8zpYJbapLqvB-14" value="" style="endArrow=none;html=1;rounded=0;" parent="1" edge="1">
          <mxGeometry width="50" height="50" relative="1" as="geometry">
            <mxPoint x="-240" y="640" as="sourcePoint" />
            <mxPoint x="-200" y="680" as="targetPoint" />
          </mxGeometry>
        </mxCell>
        <mxCell id="uATIUZiZ8zpYJbapLqvB-15" value="" style="endArrow=none;html=1;rounded=0;" parent="1" edge="1">
          <mxGeometry width="50" height="50" relative="1" as="geometry">
            <mxPoint x="-200" y="680" as="sourcePoint" />
            <mxPoint x="-80" y="680" as="targetPoint" />
          </mxGeometry>
        </mxCell>
        <mxCell id="uATIUZiZ8zpYJbapLqvB-16" value="" style="endArrow=none;html=1;rounded=0;" parent="1" edge="1">
          <mxGeometry width="50" height="50" relative="1" as="geometry">
            <mxPoint x="-200" y="600" as="sourcePoint" />
            <mxPoint x="-80" y="600" as="targetPoint" />
          </mxGeometry>
        </mxCell>
        <mxCell id="uATIUZiZ8zpYJbapLqvB-17" value="" style="endArrow=none;html=1;rounded=0;" parent="1" edge="1">
          <mxGeometry width="50" height="50" relative="1" as="geometry">
            <mxPoint x="-80" y="680" as="sourcePoint" />
            <mxPoint x="-80" y="600" as="targetPoint" />
          </mxGeometry>
        </mxCell>
        <mxCell id="uATIUZiZ8zpYJbapLqvB-18" value="" style="endArrow=none;html=1;rounded=0;" parent="1" edge="1">
          <mxGeometry width="50" height="50" relative="1" as="geometry">
            <mxPoint x="-80" y="640" as="sourcePoint" />
            <mxPoint x="200.74072265625" y="640" as="targetPoint" />
          </mxGeometry>
        </mxCell>
        <mxCell id="uATIUZiZ8zpYJbapLqvB-19" value="" style="endArrow=none;html=1;rounded=0;" parent="1" edge="1">
          <mxGeometry width="50" height="50" relative="1" as="geometry">
            <mxPoint x="-80" y="520" as="sourcePoint" />
            <mxPoint x="-80" y="400" as="targetPoint" />
          </mxGeometry>
        </mxCell>
        <mxCell id="uATIUZiZ8zpYJbapLqvB-20" value="" style="endArrow=none;html=1;rounded=0;" parent="1" edge="1">
          <mxGeometry width="50" height="50" relative="1" as="geometry">
            <mxPoint x="-80" y="400" as="sourcePoint" />
            <mxPoint x="200" y="400" as="targetPoint" />
          </mxGeometry>
        </mxCell>
        <mxCell id="uATIUZiZ8zpYJbapLqvB-21" value="" style="endArrow=none;html=1;rounded=0;" parent="1" edge="1">
          <mxGeometry width="50" height="50" relative="1" as="geometry">
            <mxPoint x="200" y="480" as="sourcePoint" />
            <mxPoint x="200" y="400" as="targetPoint" />
          </mxGeometry>
        </mxCell>
        <mxCell id="uATIUZiZ8zpYJbapLqvB-22" value="" style="endArrow=none;html=1;rounded=0;" parent="1" edge="1">
          <mxGeometry width="50" height="50" relative="1" as="geometry">
            <mxPoint x="200" y="640" as="sourcePoint" />
            <mxPoint x="200" y="560" as="targetPoint" />
          </mxGeometry>
        </mxCell>
        <mxCell id="uATIUZiZ8zpYJbapLqvB-23" value="" style="endArrow=none;html=1;rounded=0;" parent="1" edge="1">
          <mxGeometry width="50" height="50" relative="1" as="geometry">
            <mxPoint x="-80" y="880" as="sourcePoint" />
            <mxPoint x="-80" y="760" as="targetPoint" />
          </mxGeometry>
        </mxCell>
        <mxCell id="uATIUZiZ8zpYJbapLqvB-24" value="" style="endArrow=none;html=1;rounded=0;" parent="1" edge="1">
          <mxGeometry width="50" height="50" relative="1" as="geometry">
            <mxPoint x="-80" y="880" as="sourcePoint" />
            <mxPoint x="200" y="880" as="targetPoint" />
          </mxGeometry>
        </mxCell>
        <mxCell id="uATIUZiZ8zpYJbapLqvB-25" value="" style="endArrow=none;html=1;rounded=0;" parent="1" edge="1">
          <mxGeometry width="50" height="50" relative="1" as="geometry">
            <mxPoint x="200" y="880" as="sourcePoint" />
            <mxPoint x="200" y="800" as="targetPoint" />
          </mxGeometry>
        </mxCell>
        <mxCell id="uATIUZiZ8zpYJbapLqvB-26" value="" style="endArrow=none;html=1;rounded=0;" parent="1" edge="1">
          <mxGeometry width="50" height="50" relative="1" as="geometry">
            <mxPoint x="200" y="720" as="sourcePoint" />
            <mxPoint x="200" y="640" as="targetPoint" />
          </mxGeometry>
        </mxCell>
        <mxCell id="FaIXOcey9MvSZpUf5nS9-1" value="" style="endArrow=none;html=1;rounded=0;" parent="1" edge="1">
          <mxGeometry width="50" height="50" relative="1" as="geometry">
            <mxPoint x="200" y="480" as="sourcePoint" />
            <mxPoint x="320" y="480" as="targetPoint" />
          </mxGeometry>
        </mxCell>
        <mxCell id="FaIXOcey9MvSZpUf5nS9-2" value="" style="endArrow=none;html=1;rounded=0;" parent="1" edge="1">
          <mxGeometry width="50" height="50" relative="1" as="geometry">
            <mxPoint x="320" y="600" as="sourcePoint" />
            <mxPoint x="320" y="480" as="targetPoint" />
          </mxGeometry>
        </mxCell>
        <mxCell id="FaIXOcey9MvSZpUf5nS9-3" value="" style="endArrow=none;html=1;rounded=0;" parent="1" edge="1">
          <mxGeometry width="50" height="50" relative="1" as="geometry">
            <mxPoint x="200" y="800" as="sourcePoint" />
            <mxPoint x="320" y="800" as="targetPoint" />
          </mxGeometry>
        </mxCell>
        <mxCell id="FaIXOcey9MvSZpUf5nS9-4" value="" style="endArrow=none;html=1;rounded=0;" parent="1" edge="1">
          <mxGeometry width="50" height="50" relative="1" as="geometry">
            <mxPoint x="320" y="800" as="sourcePoint" />
            <mxPoint x="320" y="680" as="targetPoint" />
          </mxGeometry>
        </mxCell>
        <mxCell id="FaIXOcey9MvSZpUf5nS9-5" value="" style="endArrow=none;html=1;rounded=0;" parent="1" edge="1">
          <mxGeometry width="50" height="50" relative="1" as="geometry">
            <mxPoint x="320" y="600" as="sourcePoint" />
            <mxPoint x="440" y="600" as="targetPoint" />
          </mxGeometry>
        </mxCell>
        <mxCell id="FaIXOcey9MvSZpUf5nS9-6" value="" style="endArrow=none;html=1;rounded=0;" parent="1" edge="1">
          <mxGeometry width="50" height="50" relative="1" as="geometry">
            <mxPoint x="320" y="680" as="sourcePoint" />
            <mxPoint x="440" y="680" as="targetPoint" />
          </mxGeometry>
        </mxCell>
        <mxCell id="FaIXOcey9MvSZpUf5nS9-7" value="" style="endArrow=none;html=1;rounded=0;" parent="1" edge="1">
          <mxGeometry width="50" height="50" relative="1" as="geometry">
            <mxPoint x="440" y="600" as="sourcePoint" />
            <mxPoint x="560" y="520" as="targetPoint" />
          </mxGeometry>
        </mxCell>
        <mxCell id="FaIXOcey9MvSZpUf5nS9-8" value="" style="endArrow=none;html=1;rounded=0;" parent="1" edge="1">
          <mxGeometry width="50" height="50" relative="1" as="geometry">
            <mxPoint x="560" y="760" as="sourcePoint" />
            <mxPoint x="440" y="680" as="targetPoint" />
          </mxGeometry>
        </mxCell>
        <mxCell id="FaIXOcey9MvSZpUf5nS9-9" value="" style="endArrow=none;html=1;rounded=0;" parent="1" edge="1">
          <mxGeometry width="50" height="50" relative="1" as="geometry">
            <mxPoint x="560" y="520" as="sourcePoint" />
            <mxPoint x="680" y="520" as="targetPoint" />
          </mxGeometry>
        </mxCell>
        <mxCell id="FaIXOcey9MvSZpUf5nS9-10" value="" style="endArrow=none;html=1;rounded=0;" parent="1" edge="1">
          <mxGeometry width="50" height="50" relative="1" as="geometry">
            <mxPoint x="560" y="760" as="sourcePoint" />
            <mxPoint x="680" y="760" as="targetPoint" />
          </mxGeometry>
        </mxCell>
        <mxCell id="FaIXOcey9MvSZpUf5nS9-11" value="" style="endArrow=none;html=1;rounded=0;" parent="1" edge="1">
          <mxGeometry width="50" height="50" relative="1" as="geometry">
            <mxPoint x="520" y="640" as="sourcePoint" />
            <mxPoint x="560" y="600" as="targetPoint" />
          </mxGeometry>
        </mxCell>
        <mxCell id="FaIXOcey9MvSZpUf5nS9-12" value="" style="endArrow=none;html=1;rounded=0;" parent="1" edge="1">
          <mxGeometry width="50" height="50" relative="1" as="geometry">
            <mxPoint x="520" y="640" as="sourcePoint" />
            <mxPoint x="560" y="680" as="targetPoint" />
          </mxGeometry>
        </mxCell>
        <mxCell id="FaIXOcey9MvSZpUf5nS9-13" value="" style="endArrow=none;html=1;rounded=0;" parent="1" edge="1">
          <mxGeometry width="50" height="50" relative="1" as="geometry">
            <mxPoint x="560" y="680" as="sourcePoint" />
            <mxPoint x="680" y="680" as="targetPoint" />
          </mxGeometry>
        </mxCell>
        <mxCell id="FaIXOcey9MvSZpUf5nS9-14" value="" style="endArrow=none;html=1;rounded=0;" parent="1" edge="1">
          <mxGeometry width="50" height="50" relative="1" as="geometry">
            <mxPoint x="560" y="600" as="sourcePoint" />
            <mxPoint x="680" y="600" as="targetPoint" />
          </mxGeometry>
        </mxCell>
        <mxCell id="FaIXOcey9MvSZpUf5nS9-15" value="" style="endArrow=none;html=1;rounded=0;" parent="1" edge="1">
          <mxGeometry width="50" height="50" relative="1" as="geometry">
            <mxPoint x="680" y="680" as="sourcePoint" />
            <mxPoint x="680" y="600" as="targetPoint" />
          </mxGeometry>
        </mxCell>
        <mxCell id="FaIXOcey9MvSZpUf5nS9-16" value="" style="endArrow=none;html=1;rounded=0;" parent="1" edge="1">
          <mxGeometry width="50" height="50" relative="1" as="geometry">
            <mxPoint x="680" y="640" as="sourcePoint" />
            <mxPoint x="960.74072265625" y="640" as="targetPoint" />
          </mxGeometry>
        </mxCell>
        <mxCell id="FaIXOcey9MvSZpUf5nS9-17" value="" style="endArrow=none;html=1;rounded=0;" parent="1" edge="1">
          <mxGeometry width="50" height="50" relative="1" as="geometry">
            <mxPoint x="680" y="520" as="sourcePoint" />
            <mxPoint x="680" y="400" as="targetPoint" />
          </mxGeometry>
        </mxCell>
        <mxCell id="FaIXOcey9MvSZpUf5nS9-18" value="" style="endArrow=none;html=1;rounded=0;" parent="1" edge="1">
          <mxGeometry width="50" height="50" relative="1" as="geometry">
            <mxPoint x="680" y="400" as="sourcePoint" />
            <mxPoint x="960" y="400" as="targetPoint" />
          </mxGeometry>
        </mxCell>
        <mxCell id="FaIXOcey9MvSZpUf5nS9-19" value="" style="endArrow=none;html=1;rounded=0;" parent="1" edge="1">
          <mxGeometry width="50" height="50" relative="1" as="geometry">
            <mxPoint x="960" y="480" as="sourcePoint" />
            <mxPoint x="960" y="400" as="targetPoint" />
          </mxGeometry>
        </mxCell>
        <mxCell id="FaIXOcey9MvSZpUf5nS9-20" value="" style="endArrow=none;html=1;rounded=0;" parent="1" edge="1">
          <mxGeometry width="50" height="50" relative="1" as="geometry">
            <mxPoint x="960" y="640" as="sourcePoint" />
            <mxPoint x="960" y="560" as="targetPoint" />
          </mxGeometry>
        </mxCell>
        <mxCell id="FaIXOcey9MvSZpUf5nS9-21" value="" style="endArrow=none;html=1;rounded=0;" parent="1" edge="1">
          <mxGeometry width="50" height="50" relative="1" as="geometry">
            <mxPoint x="680" y="880" as="sourcePoint" />
            <mxPoint x="680" y="760" as="targetPoint" />
          </mxGeometry>
        </mxCell>
        <mxCell id="FaIXOcey9MvSZpUf5nS9-22" value="" style="endArrow=none;html=1;rounded=0;" parent="1" edge="1">
          <mxGeometry width="50" height="50" relative="1" as="geometry">
            <mxPoint x="680" y="880" as="sourcePoint" />
            <mxPoint x="960" y="880" as="targetPoint" />
          </mxGeometry>
        </mxCell>
        <mxCell id="FaIXOcey9MvSZpUf5nS9-23" value="" style="endArrow=none;html=1;rounded=0;" parent="1" edge="1">
          <mxGeometry width="50" height="50" relative="1" as="geometry">
            <mxPoint x="960" y="880" as="sourcePoint" />
            <mxPoint x="960" y="800" as="targetPoint" />
          </mxGeometry>
        </mxCell>
        <mxCell id="FaIXOcey9MvSZpUf5nS9-24" value="" style="endArrow=none;html=1;rounded=0;" parent="1" edge="1">
          <mxGeometry width="50" height="50" relative="1" as="geometry">
            <mxPoint x="960" y="720" as="sourcePoint" />
            <mxPoint x="960" y="640" as="targetPoint" />
          </mxGeometry>
        </mxCell>
        <mxCell id="FaIXOcey9MvSZpUf5nS9-25" value="" style="endArrow=none;html=1;rounded=0;" parent="1" edge="1">
          <mxGeometry width="50" height="50" relative="1" as="geometry">
            <mxPoint x="960" y="480" as="sourcePoint" />
            <mxPoint x="1080" y="480" as="targetPoint" />
          </mxGeometry>
        </mxCell>
        <mxCell id="FaIXOcey9MvSZpUf5nS9-26" value="" style="endArrow=none;html=1;rounded=0;" parent="1" edge="1">
          <mxGeometry width="50" height="50" relative="1" as="geometry">
            <mxPoint x="1080" y="600" as="sourcePoint" />
            <mxPoint x="1080" y="480" as="targetPoint" />
          </mxGeometry>
        </mxCell>
        <mxCell id="FaIXOcey9MvSZpUf5nS9-27" value="" style="endArrow=none;html=1;rounded=0;" parent="1" edge="1">
          <mxGeometry width="50" height="50" relative="1" as="geometry">
            <mxPoint x="960" y="800" as="sourcePoint" />
            <mxPoint x="1080" y="800" as="targetPoint" />
          </mxGeometry>
        </mxCell>
        <mxCell id="FaIXOcey9MvSZpUf5nS9-28" value="" style="endArrow=none;html=1;rounded=0;" parent="1" edge="1">
          <mxGeometry width="50" height="50" relative="1" as="geometry">
            <mxPoint x="1080" y="800" as="sourcePoint" />
            <mxPoint x="1080" y="680" as="targetPoint" />
          </mxGeometry>
        </mxCell>
        <mxCell id="FaIXOcey9MvSZpUf5nS9-29" value="" style="endArrow=none;html=1;rounded=0;" parent="1" edge="1">
          <mxGeometry width="50" height="50" relative="1" as="geometry">
            <mxPoint x="1080" y="600" as="sourcePoint" />
            <mxPoint x="1200" y="600" as="targetPoint" />
          </mxGeometry>
        </mxCell>
        <mxCell id="FaIXOcey9MvSZpUf5nS9-30" value="" style="endArrow=none;html=1;rounded=0;" parent="1" edge="1">
          <mxGeometry width="50" height="50" relative="1" as="geometry">
            <mxPoint x="1080" y="680" as="sourcePoint" />
            <mxPoint x="1200" y="680" as="targetPoint" />
          </mxGeometry>
        </mxCell>
        <mxCell id="FaIXOcey9MvSZpUf5nS9-31" value="" style="endArrow=none;html=1;rounded=0;" parent="1" edge="1">
          <mxGeometry width="50" height="50" relative="1" as="geometry">
            <mxPoint x="1200" y="600" as="sourcePoint" />
            <mxPoint x="1320" y="520" as="targetPoint" />
          </mxGeometry>
        </mxCell>
        <mxCell id="FaIXOcey9MvSZpUf5nS9-32" value="" style="endArrow=none;html=1;rounded=0;" parent="1" edge="1">
          <mxGeometry width="50" height="50" relative="1" as="geometry">
            <mxPoint x="1320" y="760" as="sourcePoint" />
            <mxPoint x="1200" y="680" as="targetPoint" />
          </mxGeometry>
        </mxCell>
        <mxCell id="FaIXOcey9MvSZpUf5nS9-33" value="" style="endArrow=none;html=1;rounded=0;" parent="1" edge="1">
          <mxGeometry width="50" height="50" relative="1" as="geometry">
            <mxPoint x="1320" y="520" as="sourcePoint" />
            <mxPoint x="1440" y="520" as="targetPoint" />
          </mxGeometry>
        </mxCell>
        <mxCell id="FaIXOcey9MvSZpUf5nS9-34" value="" style="endArrow=none;html=1;rounded=0;" parent="1" edge="1">
          <mxGeometry width="50" height="50" relative="1" as="geometry">
            <mxPoint x="1320" y="760" as="sourcePoint" />
            <mxPoint x="1440" y="760" as="targetPoint" />
          </mxGeometry>
        </mxCell>
        <mxCell id="FaIXOcey9MvSZpUf5nS9-35" value="" style="endArrow=none;html=1;rounded=0;" parent="1" edge="1">
          <mxGeometry width="50" height="50" relative="1" as="geometry">
            <mxPoint x="1280" y="640" as="sourcePoint" />
            <mxPoint x="1320" y="600" as="targetPoint" />
          </mxGeometry>
        </mxCell>
        <mxCell id="FaIXOcey9MvSZpUf5nS9-36" value="" style="endArrow=none;html=1;rounded=0;" parent="1" edge="1">
          <mxGeometry width="50" height="50" relative="1" as="geometry">
            <mxPoint x="1280" y="640" as="sourcePoint" />
            <mxPoint x="1320" y="680" as="targetPoint" />
          </mxGeometry>
        </mxCell>
        <mxCell id="FaIXOcey9MvSZpUf5nS9-37" value="" style="endArrow=none;html=1;rounded=0;" parent="1" edge="1">
          <mxGeometry width="50" height="50" relative="1" as="geometry">
            <mxPoint x="1320" y="680" as="sourcePoint" />
            <mxPoint x="1440" y="680" as="targetPoint" />
          </mxGeometry>
        </mxCell>
        <mxCell id="FaIXOcey9MvSZpUf5nS9-38" value="" style="endArrow=none;html=1;rounded=0;" parent="1" edge="1">
          <mxGeometry width="50" height="50" relative="1" as="geometry">
            <mxPoint x="1320" y="600" as="sourcePoint" />
            <mxPoint x="1440" y="600" as="targetPoint" />
          </mxGeometry>
        </mxCell>
        <mxCell id="FaIXOcey9MvSZpUf5nS9-39" value="" style="endArrow=none;html=1;rounded=0;" parent="1" edge="1">
          <mxGeometry width="50" height="50" relative="1" as="geometry">
            <mxPoint x="1440" y="680" as="sourcePoint" />
            <mxPoint x="1440" y="600" as="targetPoint" />
          </mxGeometry>
        </mxCell>
        <mxCell id="FaIXOcey9MvSZpUf5nS9-40" value="" style="endArrow=none;html=1;rounded=0;" parent="1" edge="1">
          <mxGeometry width="50" height="50" relative="1" as="geometry">
            <mxPoint x="1440" y="640" as="sourcePoint" />
            <mxPoint x="1720.74072265625" y="640" as="targetPoint" />
          </mxGeometry>
        </mxCell>
        <mxCell id="FaIXOcey9MvSZpUf5nS9-41" value="" style="endArrow=none;html=1;rounded=0;" parent="1" edge="1">
          <mxGeometry width="50" height="50" relative="1" as="geometry">
            <mxPoint x="1440" y="520" as="sourcePoint" />
            <mxPoint x="1440" y="400" as="targetPoint" />
          </mxGeometry>
        </mxCell>
        <mxCell id="FaIXOcey9MvSZpUf5nS9-42" value="" style="endArrow=none;html=1;rounded=0;" parent="1" edge="1">
          <mxGeometry width="50" height="50" relative="1" as="geometry">
            <mxPoint x="1440" y="400" as="sourcePoint" />
            <mxPoint x="1720" y="400" as="targetPoint" />
          </mxGeometry>
        </mxCell>
        <mxCell id="FaIXOcey9MvSZpUf5nS9-43" value="" style="endArrow=none;html=1;rounded=0;" parent="1" edge="1">
          <mxGeometry width="50" height="50" relative="1" as="geometry">
            <mxPoint x="1720" y="480" as="sourcePoint" />
            <mxPoint x="1720" y="400" as="targetPoint" />
          </mxGeometry>
        </mxCell>
        <mxCell id="FaIXOcey9MvSZpUf5nS9-44" value="" style="endArrow=none;html=1;rounded=0;" parent="1" edge="1">
          <mxGeometry width="50" height="50" relative="1" as="geometry">
            <mxPoint x="1720" y="640" as="sourcePoint" />
            <mxPoint x="1720" y="560" as="targetPoint" />
          </mxGeometry>
        </mxCell>
        <mxCell id="FaIXOcey9MvSZpUf5nS9-45" value="" style="endArrow=none;html=1;rounded=0;" parent="1" edge="1">
          <mxGeometry width="50" height="50" relative="1" as="geometry">
            <mxPoint x="1440" y="880" as="sourcePoint" />
            <mxPoint x="1440" y="760" as="targetPoint" />
          </mxGeometry>
        </mxCell>
        <mxCell id="FaIXOcey9MvSZpUf5nS9-46" value="" style="endArrow=none;html=1;rounded=0;" parent="1" edge="1">
          <mxGeometry width="50" height="50" relative="1" as="geometry">
            <mxPoint x="1440" y="880" as="sourcePoint" />
            <mxPoint x="1720" y="880" as="targetPoint" />
          </mxGeometry>
        </mxCell>
        <mxCell id="FaIXOcey9MvSZpUf5nS9-47" value="" style="endArrow=none;html=1;rounded=0;" parent="1" edge="1">
          <mxGeometry width="50" height="50" relative="1" as="geometry">
            <mxPoint x="1720" y="880" as="sourcePoint" />
            <mxPoint x="1720" y="800" as="targetPoint" />
          </mxGeometry>
        </mxCell>
        <mxCell id="FaIXOcey9MvSZpUf5nS9-48" value="" style="endArrow=none;html=1;rounded=0;" parent="1" edge="1">
          <mxGeometry width="50" height="50" relative="1" as="geometry">
            <mxPoint x="1720" y="720" as="sourcePoint" />
            <mxPoint x="1720" y="640" as="targetPoint" />
          </mxGeometry>
        </mxCell>
        <mxCell id="FaIXOcey9MvSZpUf5nS9-49" value="" style="endArrow=none;html=1;rounded=0;" parent="1" edge="1">
          <mxGeometry width="50" height="50" relative="1" as="geometry">
            <mxPoint x="1720" y="480" as="sourcePoint" />
            <mxPoint x="1840" y="480" as="targetPoint" />
          </mxGeometry>
        </mxCell>
        <mxCell id="FaIXOcey9MvSZpUf5nS9-50" value="" style="endArrow=none;html=1;rounded=0;" parent="1" edge="1">
          <mxGeometry width="50" height="50" relative="1" as="geometry">
            <mxPoint x="1840" y="600" as="sourcePoint" />
            <mxPoint x="1840" y="480" as="targetPoint" />
          </mxGeometry>
        </mxCell>
        <mxCell id="FaIXOcey9MvSZpUf5nS9-51" value="" style="endArrow=none;html=1;rounded=0;" parent="1" edge="1">
          <mxGeometry width="50" height="50" relative="1" as="geometry">
            <mxPoint x="1720" y="800" as="sourcePoint" />
            <mxPoint x="1840" y="800" as="targetPoint" />
          </mxGeometry>
        </mxCell>
        <mxCell id="FaIXOcey9MvSZpUf5nS9-52" value="" style="endArrow=none;html=1;rounded=0;" parent="1" edge="1">
          <mxGeometry width="50" height="50" relative="1" as="geometry">
            <mxPoint x="1840" y="800" as="sourcePoint" />
            <mxPoint x="1840" y="680" as="targetPoint" />
          </mxGeometry>
        </mxCell>
        <mxCell id="FaIXOcey9MvSZpUf5nS9-53" value="" style="endArrow=none;html=1;rounded=0;" parent="1" edge="1">
          <mxGeometry width="50" height="50" relative="1" as="geometry">
            <mxPoint x="1840" y="600" as="sourcePoint" />
            <mxPoint x="1960" y="600" as="targetPoint" />
          </mxGeometry>
        </mxCell>
        <mxCell id="FaIXOcey9MvSZpUf5nS9-54" value="" style="endArrow=none;html=1;rounded=0;" parent="1" edge="1">
          <mxGeometry width="50" height="50" relative="1" as="geometry">
            <mxPoint x="1840" y="680" as="sourcePoint" />
            <mxPoint x="1960" y="680" as="targetPoint" />
          </mxGeometry>
        </mxCell>
        <mxCell id="FaIXOcey9MvSZpUf5nS9-55" value="" style="endArrow=none;html=1;rounded=0;" parent="1" edge="1">
          <mxGeometry width="50" height="50" relative="1" as="geometry">
            <mxPoint x="1960" y="600" as="sourcePoint" />
            <mxPoint x="1960" y="520" as="targetPoint" />
          </mxGeometry>
        </mxCell>
        <mxCell id="FaIXOcey9MvSZpUf5nS9-56" value="" style="endArrow=none;html=1;rounded=0;" parent="1" edge="1">
          <mxGeometry width="50" height="50" relative="1" as="geometry">
            <mxPoint x="1960" y="760" as="sourcePoint" />
            <mxPoint x="1960" y="680" as="targetPoint" />
          </mxGeometry>
        </mxCell>
        <mxCell id="FaIXOcey9MvSZpUf5nS9-57" value="" style="endArrow=none;html=1;rounded=0;" parent="1" edge="1">
          <mxGeometry width="50" height="50" relative="1" as="geometry">
            <mxPoint x="1960" y="760" as="sourcePoint" />
            <mxPoint x="2200" y="760" as="targetPoint" />
          </mxGeometry>
        </mxCell>
        <mxCell id="FaIXOcey9MvSZpUf5nS9-58" value="" style="endArrow=none;html=1;rounded=0;" parent="1" edge="1">
          <mxGeometry width="50" height="50" relative="1" as="geometry">
            <mxPoint x="1960" y="520" as="sourcePoint" />
            <mxPoint x="2200" y="520" as="targetPoint" />
          </mxGeometry>
        </mxCell>
        <mxCell id="FaIXOcey9MvSZpUf5nS9-60" value="" style="endArrow=none;html=1;rounded=0;" parent="1" edge="1">
          <mxGeometry width="50" height="50" relative="1" as="geometry">
            <mxPoint x="2200" y="760" as="sourcePoint" />
            <mxPoint x="2200" y="520" as="targetPoint" />
          </mxGeometry>
        </mxCell>
        <mxCell id="CO8JX9GHZvh5KLFThNco-1" value="Shop" style="ellipse;whiteSpace=wrap;html=1;aspect=fixed;" vertex="1" parent="1">
          <mxGeometry x="2000" y="560" width="40" height="40" as="geometry" />
        </mxCell>
        <mxCell id="CO8JX9GHZvh5KLFThNco-2" value="Portal&lt;div&gt;to LVL 5&lt;/div&gt;" style="rhombus;whiteSpace=wrap;html=1;" vertex="1" parent="1">
          <mxGeometry x="2110" y="600" width="80" height="80" as="geometry" />
        </mxCell>
        <mxCell id="CO8JX9GHZvh5KLFThNco-3" value="Spawn" style="triangle;whiteSpace=wrap;html=1;" vertex="1" parent="1">
          <mxGeometry x="-620" y="620" width="40" height="60" as="geometry" />
        </mxCell>
        <mxCell id="CO8JX9GHZvh5KLFThNco-4" value="Shop" style="ellipse;whiteSpace=wrap;html=1;aspect=fixed;" vertex="1" parent="1">
          <mxGeometry x="-480" y="560" width="40" height="40" as="geometry" />
        </mxCell>
        <mxCell id="CO8JX9GHZvh5KLFThNco-5" value="On Update" style="rounded=0;whiteSpace=wrap;html=1;" vertex="1" parent="1">
          <mxGeometry x="-355" y="1350" width="120" height="40" as="geometry" />
        </mxCell>
        <mxCell id="CO8JX9GHZvh5KLFThNco-6" style="edgeStyle=none;curved=1;rounded=0;orthogonalLoop=1;jettySize=auto;html=1;exitX=0.5;exitY=1;exitDx=0;exitDy=0;fontSize=12;startSize=8;endSize=8;" edge="1" parent="1" source="CO8JX9GHZvh5KLFThNco-7" target="CO8JX9GHZvh5KLFThNco-11">
          <mxGeometry relative="1" as="geometry" />
        </mxCell>
        <mxCell id="CO8JX9GHZvh5KLFThNco-7" value="&lt;div&gt;&lt;span style=&quot;background-color: transparent; color: light-dark(rgb(0, 0, 0), rgb(255, 255, 255));&quot;&gt;When Movement key is pressed&lt;/span&gt;&lt;/div&gt;" style="rhombus;whiteSpace=wrap;html=1;" vertex="1" parent="1">
          <mxGeometry x="-710" y="1450" width="190" height="80" as="geometry" />
        </mxCell>
        <mxCell id="CO8JX9GHZvh5KLFThNco-8" value="" style="endArrow=none;html=1;rounded=0;fontSize=12;startSize=8;endSize=8;curved=1;" edge="1" parent="1">
          <mxGeometry width="50" height="50" relative="1" as="geometry">
            <mxPoint x="-295" y="1430" as="sourcePoint" />
            <mxPoint x="-295" y="1390" as="targetPoint" />
          </mxGeometry>
        </mxCell>
        <mxCell id="CO8JX9GHZvh5KLFThNco-9" value="" style="endArrow=none;html=1;rounded=0;fontSize=12;startSize=8;endSize=8;curved=1;" edge="1" parent="1">
          <mxGeometry width="50" height="50" relative="1" as="geometry">
            <mxPoint x="-295" y="1430" as="sourcePoint" />
            <mxPoint x="-615" y="1430" as="targetPoint" />
          </mxGeometry>
        </mxCell>
        <mxCell id="CO8JX9GHZvh5KLFThNco-10" value="" style="endArrow=classic;html=1;rounded=0;fontSize=12;startSize=8;endSize=8;curved=1;entryX=0.5;entryY=0;entryDx=0;entryDy=0;" edge="1" parent="1" target="CO8JX9GHZvh5KLFThNco-7">
          <mxGeometry width="50" height="50" relative="1" as="geometry">
            <mxPoint x="-615" y="1430" as="sourcePoint" />
            <mxPoint x="-665" y="1440" as="targetPoint" />
          </mxGeometry>
        </mxCell>
        <mxCell id="CO8JX9GHZvh5KLFThNco-11" value="Move the player in that direction" style="rounded=0;whiteSpace=wrap;html=1;" vertex="1" parent="1">
          <mxGeometry x="-675" y="1590" width="120" height="60" as="geometry" />
        </mxCell>
        <mxCell id="CO8JX9GHZvh5KLFThNco-12" value="" style="endArrow=classic;html=1;rounded=0;fontSize=12;startSize=8;endSize=8;curved=1;" edge="1" parent="1">
          <mxGeometry width="50" height="50" relative="1" as="geometry">
            <mxPoint x="-415" y="1430" as="sourcePoint" />
            <mxPoint x="-415" y="1450" as="targetPoint" />
          </mxGeometry>
        </mxCell>
        <mxCell id="CO8JX9GHZvh5KLFThNco-13" value="" style="edgeStyle=none;curved=1;rounded=0;orthogonalLoop=1;jettySize=auto;html=1;fontSize=12;startSize=8;endSize=8;" edge="1" parent="1" source="CO8JX9GHZvh5KLFThNco-14" target="CO8JX9GHZvh5KLFThNco-19">
          <mxGeometry relative="1" as="geometry" />
        </mxCell>
        <mxCell id="CO8JX9GHZvh5KLFThNco-14" value="When interact with weapon" style="rhombus;whiteSpace=wrap;html=1;" vertex="1" parent="1">
          <mxGeometry x="-295" y="1450" width="160" height="80" as="geometry" />
        </mxCell>
        <mxCell id="CO8JX9GHZvh5KLFThNco-15" value="" style="endArrow=none;html=1;rounded=0;fontSize=12;startSize=8;endSize=8;curved=1;" edge="1" parent="1">
          <mxGeometry width="50" height="50" relative="1" as="geometry">
            <mxPoint x="-295" y="1430" as="sourcePoint" />
            <mxPoint x="2090" y="1430" as="targetPoint" />
          </mxGeometry>
        </mxCell>
        <mxCell id="CO8JX9GHZvh5KLFThNco-16" value="" style="endArrow=classic;html=1;rounded=0;fontSize=12;startSize=8;endSize=8;curved=1;" edge="1" parent="1">
          <mxGeometry width="50" height="50" relative="1" as="geometry">
            <mxPoint x="-215.11" y="1430" as="sourcePoint" />
            <mxPoint x="-215.11" y="1450" as="targetPoint" />
          </mxGeometry>
        </mxCell>
        <mxCell id="CO8JX9GHZvh5KLFThNco-17" style="edgeStyle=orthogonalEdgeStyle;rounded=0;orthogonalLoop=1;jettySize=auto;html=1;exitX=1;exitY=0.5;exitDx=0;exitDy=0;" edge="1" parent="1">
          <mxGeometry relative="1" as="geometry">
            <mxPoint x="-82.5" y="1620" as="targetPoint" />
            <mxPoint x="-162.5" y="1620" as="sourcePoint" />
          </mxGeometry>
        </mxCell>
        <mxCell id="CO8JX9GHZvh5KLFThNco-18" style="edgeStyle=orthogonalEdgeStyle;rounded=0;orthogonalLoop=1;jettySize=auto;html=1;exitX=0.5;exitY=1;exitDx=0;exitDy=0;" edge="1" parent="1" source="CO8JX9GHZvh5KLFThNco-19">
          <mxGeometry relative="1" as="geometry">
            <mxPoint x="-215" y="1710" as="targetPoint" />
          </mxGeometry>
        </mxCell>
        <mxCell id="CO8JX9GHZvh5KLFThNco-19" value="Do player have a weapon&lt;div&gt;equipped already&lt;/div&gt;" style="rhombus;whiteSpace=wrap;html=1;" vertex="1" parent="1">
          <mxGeometry x="-295" y="1580" width="160" height="80" as="geometry" />
        </mxCell>
        <mxCell id="CO8JX9GHZvh5KLFThNco-20" value="Equip Weapon&amp;nbsp;" style="rounded=0;whiteSpace=wrap;html=1;" vertex="1" parent="1">
          <mxGeometry x="-82.5" y="1590" width="120" height="60" as="geometry" />
        </mxCell>
        <mxCell id="CO8JX9GHZvh5KLFThNco-21" value="Swap Weapons" style="rounded=0;whiteSpace=wrap;html=1;" vertex="1" parent="1">
          <mxGeometry x="-275" y="1710" width="120" height="60" as="geometry" />
        </mxCell>
        <mxCell id="CO8JX9GHZvh5KLFThNco-22" value="" style="endArrow=classic;html=1;rounded=0;fontSize=12;startSize=8;endSize=8;curved=1;" edge="1" parent="1">
          <mxGeometry width="50" height="50" relative="1" as="geometry">
            <mxPoint x="174.60000000000002" y="1430" as="sourcePoint" />
            <mxPoint x="174.60000000000002" y="1450" as="targetPoint" />
          </mxGeometry>
        </mxCell>
        <mxCell id="CO8JX9GHZvh5KLFThNco-23" style="edgeStyle=orthogonalEdgeStyle;rounded=0;orthogonalLoop=1;jettySize=auto;html=1;exitX=0.5;exitY=1;exitDx=0;exitDy=0;entryX=0.5;entryY=0;entryDx=0;entryDy=0;" edge="1" parent="1" source="CO8JX9GHZvh5KLFThNco-24">
          <mxGeometry relative="1" as="geometry">
            <mxPoint x="175" y="1590" as="targetPoint" />
          </mxGeometry>
        </mxCell>
        <mxCell id="CO8JX9GHZvh5KLFThNco-24" value="When Attack key is pressed" style="rhombus;whiteSpace=wrap;html=1;" vertex="1" parent="1">
          <mxGeometry x="105" y="1450" width="140" height="80" as="geometry" />
        </mxCell>
        <mxCell id="CO8JX9GHZvh5KLFThNco-25" style="edgeStyle=orthogonalEdgeStyle;rounded=0;orthogonalLoop=1;jettySize=auto;html=1;exitX=0.5;exitY=1;exitDx=0;exitDy=0;" edge="1" parent="1" source="CO8JX9GHZvh5KLFThNco-27">
          <mxGeometry relative="1" as="geometry">
            <mxPoint x="65" y="1740" as="targetPoint" />
            <mxPoint x="175" y="1710" as="sourcePoint" />
          </mxGeometry>
        </mxCell>
        <mxCell id="CO8JX9GHZvh5KLFThNco-26" value="" style="edgeStyle=orthogonalEdgeStyle;rounded=0;orthogonalLoop=1;jettySize=auto;html=1;" edge="1" parent="1" source="CO8JX9GHZvh5KLFThNco-27" target="CO8JX9GHZvh5KLFThNco-29">
          <mxGeometry relative="1" as="geometry" />
        </mxCell>
        <mxCell id="CO8JX9GHZvh5KLFThNco-27" value="Is equipped weapon type&lt;div&gt;&amp;nbsp;projectile or melee&lt;/div&gt;" style="rhombus;whiteSpace=wrap;html=1;rounded=0;" vertex="1" parent="1">
          <mxGeometry x="85" y="1590" width="180" height="80" as="geometry" />
        </mxCell>
        <mxCell id="CO8JX9GHZvh5KLFThNco-28" value="" style="edgeStyle=orthogonalEdgeStyle;rounded=0;orthogonalLoop=1;jettySize=auto;html=1;" edge="1" parent="1" source="CO8JX9GHZvh5KLFThNco-29" target="CO8JX9GHZvh5KLFThNco-38">
          <mxGeometry relative="1" as="geometry" />
        </mxCell>
        <mxCell id="CO8JX9GHZvh5KLFThNco-29" value="If melee, create a slashing object with damage stats from weapon, when enemy touch&amp;nbsp;" style="whiteSpace=wrap;html=1;rounded=0;" vertex="1" parent="1">
          <mxGeometry x="208" y="1740" width="170" height="50" as="geometry" />
        </mxCell>
        <mxCell id="CO8JX9GHZvh5KLFThNco-30" value="" style="edgeStyle=orthogonalEdgeStyle;rounded=0;orthogonalLoop=1;jettySize=auto;html=1;" edge="1" parent="1" source="CO8JX9GHZvh5KLFThNco-31" target="CO8JX9GHZvh5KLFThNco-35">
          <mxGeometry relative="1" as="geometry" />
        </mxCell>
        <mxCell id="CO8JX9GHZvh5KLFThNco-31" value="If Projectile, create a projectile with speed stats and damage stats from weapon&amp;nbsp;" style="rounded=0;whiteSpace=wrap;html=1;" vertex="1" parent="1">
          <mxGeometry x="5" y="1740" width="120" height="60" as="geometry" />
        </mxCell>
        <mxCell id="CO8JX9GHZvh5KLFThNco-32" style="edgeStyle=orthogonalEdgeStyle;rounded=0;orthogonalLoop=1;jettySize=auto;html=1;exitX=0.5;exitY=1;exitDx=0;exitDy=0;" edge="1" parent="1" source="CO8JX9GHZvh5KLFThNco-29" target="CO8JX9GHZvh5KLFThNco-29">
          <mxGeometry relative="1" as="geometry" />
        </mxCell>
        <mxCell id="CO8JX9GHZvh5KLFThNco-33" value="" style="edgeStyle=orthogonalEdgeStyle;rounded=0;orthogonalLoop=1;jettySize=auto;html=1;" edge="1" parent="1" source="CO8JX9GHZvh5KLFThNco-35" target="CO8JX9GHZvh5KLFThNco-36">
          <mxGeometry relative="1" as="geometry" />
        </mxCell>
        <mxCell id="CO8JX9GHZvh5KLFThNco-34" value="" style="edgeStyle=orthogonalEdgeStyle;rounded=0;orthogonalLoop=1;jettySize=auto;html=1;exitX=1;exitY=0.5;exitDx=0;exitDy=0;" edge="1" parent="1" source="CO8JX9GHZvh5KLFThNco-35" target="CO8JX9GHZvh5KLFThNco-37">
          <mxGeometry relative="1" as="geometry" />
        </mxCell>
        <mxCell id="CO8JX9GHZvh5KLFThNco-35" value="Did the projectile hit&lt;div&gt;the enemy before a set time&lt;/div&gt;" style="rhombus;whiteSpace=wrap;html=1;rounded=0;" vertex="1" parent="1">
          <mxGeometry x="-35" y="1830" width="200" height="90" as="geometry" />
        </mxCell>
        <mxCell id="CO8JX9GHZvh5KLFThNco-36" value="Delt damage to enemy health point. Delete projectile" style="whiteSpace=wrap;html=1;rounded=0;" vertex="1" parent="1">
          <mxGeometry x="4" y="1960" width="120" height="60" as="geometry" />
        </mxCell>
        <mxCell id="CO8JX9GHZvh5KLFThNco-37" value="Delete Projectile" style="whiteSpace=wrap;html=1;rounded=0;" vertex="1" parent="1">
          <mxGeometry x="158.75" y="1940" width="120" height="60" as="geometry" />
        </mxCell>
        <mxCell id="CO8JX9GHZvh5KLFThNco-38" value="Deal damage to enemy according with weapon damage stats" style="whiteSpace=wrap;html=1;rounded=0;" vertex="1" parent="1">
          <mxGeometry x="315" y="1890" width="120" height="60" as="geometry" />
        </mxCell>
        <mxCell id="CO8JX9GHZvh5KLFThNco-39" value="" style="endArrow=classic;html=1;rounded=0;fontSize=12;startSize=8;endSize=8;curved=1;" edge="1" parent="1">
          <mxGeometry width="50" height="50" relative="1" as="geometry">
            <mxPoint x="456.4100000000001" y="1430" as="sourcePoint" />
            <mxPoint x="456.4100000000001" y="1450" as="targetPoint" />
          </mxGeometry>
        </mxCell>
        <mxCell id="CO8JX9GHZvh5KLFThNco-40" value="" style="edgeStyle=orthogonalEdgeStyle;rounded=0;orthogonalLoop=1;jettySize=auto;html=1;" edge="1" parent="1" source="CO8JX9GHZvh5KLFThNco-41" target="CO8JX9GHZvh5KLFThNco-42">
          <mxGeometry relative="1" as="geometry" />
        </mxCell>
        <mxCell id="CO8JX9GHZvh5KLFThNco-41" value="When player collides with enemy attack" style="rhombus;whiteSpace=wrap;html=1;" vertex="1" parent="1">
          <mxGeometry x="335" y="1450" width="245" height="90" as="geometry" />
        </mxCell>
        <mxCell id="CO8JX9GHZvh5KLFThNco-42" value="Reduce Player&#39;s HP based on attack damage" style="whiteSpace=wrap;html=1;" vertex="1" parent="1">
          <mxGeometry x="397" y="1590" width="120" height="60" as="geometry" />
        </mxCell>
        <mxCell id="CO8JX9GHZvh5KLFThNco-43" value="" style="endArrow=classic;html=1;rounded=0;fontSize=12;startSize=8;endSize=8;curved=1;" edge="1" parent="1">
          <mxGeometry width="50" height="50" relative="1" as="geometry">
            <mxPoint x="746.4100000000001" y="1430" as="sourcePoint" />
            <mxPoint x="746.4100000000001" y="1450" as="targetPoint" />
          </mxGeometry>
        </mxCell>
        <mxCell id="CO8JX9GHZvh5KLFThNco-44" value="" style="edgeStyle=orthogonalEdgeStyle;rounded=0;orthogonalLoop=1;jettySize=auto;html=1;" edge="1" parent="1" source="CO8JX9GHZvh5KLFThNco-45" target="CO8JX9GHZvh5KLFThNco-47">
          <mxGeometry relative="1" as="geometry" />
        </mxCell>
        <mxCell id="CO8JX9GHZvh5KLFThNco-45" value="When Player HP reach 0" style="rhombus;whiteSpace=wrap;html=1;" vertex="1" parent="1">
          <mxGeometry x="625" y="1450" width="245" height="90" as="geometry" />
        </mxCell>
        <mxCell id="CO8JX9GHZvh5KLFThNco-46" value="" style="edgeStyle=orthogonalEdgeStyle;rounded=0;orthogonalLoop=1;jettySize=auto;html=1;" edge="1" parent="1" source="CO8JX9GHZvh5KLFThNco-47" target="CO8JX9GHZvh5KLFThNco-48">
          <mxGeometry relative="1" as="geometry" />
        </mxCell>
        <mxCell id="CO8JX9GHZvh5KLFThNco-47" value="Play death animation" style="whiteSpace=wrap;html=1;" vertex="1" parent="1">
          <mxGeometry x="687.5" y="1590" width="120" height="60" as="geometry" />
        </mxCell>
        <mxCell id="CO8JX9GHZvh5KLFThNco-48" value="Bring player to most recent checkpoint(spawn point if there is none)" style="whiteSpace=wrap;html=1;" vertex="1" parent="1">
          <mxGeometry x="671.25" y="1730" width="152.5" height="60" as="geometry" />
        </mxCell>
        <mxCell id="CO8JX9GHZvh5KLFThNco-49" value="" style="endArrow=classic;html=1;rounded=0;fontSize=12;startSize=8;endSize=8;curved=1;" edge="1" parent="1">
          <mxGeometry width="50" height="50" relative="1" as="geometry">
            <mxPoint x="1026.41" y="1430" as="sourcePoint" />
            <mxPoint x="1026.41" y="1450" as="targetPoint" />
          </mxGeometry>
        </mxCell>
        <mxCell id="CO8JX9GHZvh5KLFThNco-50" value="" style="edgeStyle=orthogonalEdgeStyle;rounded=0;orthogonalLoop=1;jettySize=auto;html=1;" edge="1" parent="1" source="CO8JX9GHZvh5KLFThNco-51" target="CO8JX9GHZvh5KLFThNco-52">
          <mxGeometry relative="1" as="geometry" />
        </mxCell>
        <mxCell id="CO8JX9GHZvh5KLFThNco-51" value="When player touch&lt;div&gt;end checkpoint&lt;/div&gt;" style="rhombus;whiteSpace=wrap;html=1;" vertex="1" parent="1">
          <mxGeometry x="905" y="1450" width="245" height="90" as="geometry" />
        </mxCell>
        <mxCell id="CO8JX9GHZvh5KLFThNco-52" value="Bring to next level" style="whiteSpace=wrap;html=1;" vertex="1" parent="1">
          <mxGeometry x="967.5" y="1590" width="120" height="60" as="geometry" />
        </mxCell>
        <mxCell id="CO8JX9GHZvh5KLFThNco-53" value="" style="endArrow=classic;html=1;rounded=0;fontSize=12;startSize=8;endSize=8;curved=1;" edge="1" parent="1">
          <mxGeometry width="50" height="50" relative="1" as="geometry">
            <mxPoint x="1331.41" y="1430" as="sourcePoint" />
            <mxPoint x="1331.41" y="1450" as="targetPoint" />
          </mxGeometry>
        </mxCell>
        <mxCell id="CO8JX9GHZvh5KLFThNco-54" value="" style="edgeStyle=orthogonalEdgeStyle;rounded=0;orthogonalLoop=1;jettySize=auto;html=1;" edge="1" parent="1" source="CO8JX9GHZvh5KLFThNco-56" target="CO8JX9GHZvh5KLFThNco-57">
          <mxGeometry relative="1" as="geometry" />
        </mxCell>
        <mxCell id="CO8JX9GHZvh5KLFThNco-55" value="" style="edgeStyle=orthogonalEdgeStyle;rounded=0;orthogonalLoop=1;jettySize=auto;html=1;" edge="1" parent="1" source="CO8JX9GHZvh5KLFThNco-56" target="CO8JX9GHZvh5KLFThNco-58">
          <mxGeometry relative="1" as="geometry" />
        </mxCell>
        <mxCell id="CO8JX9GHZvh5KLFThNco-56" value="When an enemy is defeated" style="rhombus;whiteSpace=wrap;html=1;" vertex="1" parent="1">
          <mxGeometry x="1210" y="1450" width="245" height="90" as="geometry" />
        </mxCell>
        <mxCell id="CO8JX9GHZvh5KLFThNco-57" value="Give player 100 coins" style="whiteSpace=wrap;html=1;" vertex="1" parent="1">
          <mxGeometry x="1130" y="1660" width="120" height="60" as="geometry" />
        </mxCell>
        <mxCell id="CO8JX9GHZvh5KLFThNco-58" value="Give player 250 coins" style="whiteSpace=wrap;html=1;" vertex="1" parent="1">
          <mxGeometry x="1420" y="1660" width="120" height="60" as="geometry" />
        </mxCell>
        <mxCell id="CO8JX9GHZvh5KLFThNco-59" value="Normal" style="text;html=1;align=center;verticalAlign=middle;whiteSpace=wrap;rounded=0;" vertex="1" parent="1">
          <mxGeometry x="1180" y="1615" width="60" height="30" as="geometry" />
        </mxCell>
        <mxCell id="CO8JX9GHZvh5KLFThNco-60" value="Boss" style="text;html=1;align=center;verticalAlign=middle;whiteSpace=wrap;rounded=0;" vertex="1" parent="1">
          <mxGeometry x="1470" y="1615" width="60" height="30" as="geometry" />
        </mxCell>
        <mxCell id="CO8JX9GHZvh5KLFThNco-61" value="" style="endArrow=classic;html=1;rounded=0;fontSize=12;startSize=8;endSize=8;curved=1;" edge="1" parent="1">
          <mxGeometry width="50" height="50" relative="1" as="geometry">
            <mxPoint x="1711.4099999999999" y="1430" as="sourcePoint" />
            <mxPoint x="1711.4099999999999" y="1450" as="targetPoint" />
          </mxGeometry>
        </mxCell>
        <mxCell id="CO8JX9GHZvh5KLFThNco-62" value="" style="edgeStyle=orthogonalEdgeStyle;rounded=0;orthogonalLoop=1;jettySize=auto;html=1;" edge="1" parent="1" source="CO8JX9GHZvh5KLFThNco-63" target="CO8JX9GHZvh5KLFThNco-65">
          <mxGeometry relative="1" as="geometry" />
        </mxCell>
        <mxCell id="CO8JX9GHZvh5KLFThNco-63" value="When player press RMB (Dodge)" style="rhombus;whiteSpace=wrap;html=1;" vertex="1" parent="1">
          <mxGeometry x="1590" y="1450" width="245" height="90" as="geometry" />
        </mxCell>
        <mxCell id="CO8JX9GHZvh5KLFThNco-64" value="" style="edgeStyle=orthogonalEdgeStyle;rounded=0;orthogonalLoop=1;jettySize=auto;html=1;" edge="1" parent="1" source="CO8JX9GHZvh5KLFThNco-65" target="CO8JX9GHZvh5KLFThNco-151">
          <mxGeometry relative="1" as="geometry" />
        </mxCell>
        <mxCell id="CO8JX9GHZvh5KLFThNco-65" value="Players perform a dash towards the direction they are currently facing" style="whiteSpace=wrap;html=1;" vertex="1" parent="1">
          <mxGeometry x="1652.5" y="1580" width="120" height="60" as="geometry" />
        </mxCell>
        <mxCell id="CO8JX9GHZvh5KLFThNco-66" value="" style="endArrow=classic;html=1;rounded=0;fontSize=12;startSize=8;endSize=8;curved=1;" edge="1" parent="1">
          <mxGeometry width="50" height="50" relative="1" as="geometry">
            <mxPoint x="2089.41" y="1430" as="sourcePoint" />
            <mxPoint x="2089.41" y="1450" as="targetPoint" />
          </mxGeometry>
        </mxCell>
        <mxCell id="CO8JX9GHZvh5KLFThNco-67" value="" style="edgeStyle=orthogonalEdgeStyle;rounded=0;orthogonalLoop=1;jettySize=auto;html=1;" edge="1" parent="1" source="CO8JX9GHZvh5KLFThNco-68" target="CO8JX9GHZvh5KLFThNco-72">
          <mxGeometry relative="1" as="geometry" />
        </mxCell>
        <mxCell id="CO8JX9GHZvh5KLFThNco-68" value="When player press ability weapon" style="rhombus;whiteSpace=wrap;html=1;" vertex="1" parent="1">
          <mxGeometry x="1968" y="1450" width="245" height="90" as="geometry" />
        </mxCell>
        <mxCell id="CO8JX9GHZvh5KLFThNco-69" value="" style="edgeStyle=orthogonalEdgeStyle;rounded=0;orthogonalLoop=1;jettySize=auto;html=1;" edge="1" parent="1" source="CO8JX9GHZvh5KLFThNco-72" target="CO8JX9GHZvh5KLFThNco-74">
          <mxGeometry relative="1" as="geometry" />
        </mxCell>
        <mxCell id="CO8JX9GHZvh5KLFThNco-70" value="" style="edgeStyle=orthogonalEdgeStyle;rounded=0;orthogonalLoop=1;jettySize=auto;html=1;" edge="1" parent="1" source="CO8JX9GHZvh5KLFThNco-72" target="CO8JX9GHZvh5KLFThNco-76">
          <mxGeometry relative="1" as="geometry" />
        </mxCell>
        <mxCell id="CO8JX9GHZvh5KLFThNco-71" value="" style="edgeStyle=orthogonalEdgeStyle;rounded=0;orthogonalLoop=1;jettySize=auto;html=1;" edge="1" parent="1" source="CO8JX9GHZvh5KLFThNco-72" target="CO8JX9GHZvh5KLFThNco-78">
          <mxGeometry relative="1" as="geometry" />
        </mxCell>
        <mxCell id="CO8JX9GHZvh5KLFThNco-72" value="Check current weapon type" style="rhombus;whiteSpace=wrap;html=1;" vertex="1" parent="1">
          <mxGeometry x="1968" y="1600" width="245" height="91" as="geometry" />
        </mxCell>
        <mxCell id="CO8JX9GHZvh5KLFThNco-73" value="" style="edgeStyle=orthogonalEdgeStyle;rounded=0;orthogonalLoop=1;jettySize=auto;html=1;" edge="1" parent="1" source="CO8JX9GHZvh5KLFThNco-74" target="CO8JX9GHZvh5KLFThNco-83">
          <mxGeometry relative="1" as="geometry" />
        </mxCell>
        <mxCell id="CO8JX9GHZvh5KLFThNco-74" value="Increase fire speed for X amount of sec" style="whiteSpace=wrap;html=1;" vertex="1" parent="1">
          <mxGeometry x="1870" y="1830" width="120" height="60" as="geometry" />
        </mxCell>
        <mxCell id="CO8JX9GHZvh5KLFThNco-75" value="" style="edgeStyle=orthogonalEdgeStyle;rounded=0;orthogonalLoop=1;jettySize=auto;html=1;" edge="1" parent="1" source="CO8JX9GHZvh5KLFThNco-76">
          <mxGeometry relative="1" as="geometry">
            <mxPoint x="2090.5" y="1970" as="targetPoint" />
          </mxGeometry>
        </mxCell>
        <mxCell id="CO8JX9GHZvh5KLFThNco-76" value="Reduce reload speed for X amount of sec" style="whiteSpace=wrap;html=1;" vertex="1" parent="1">
          <mxGeometry x="2030.5" y="1830" width="120" height="60" as="geometry" />
        </mxCell>
        <mxCell id="CO8JX9GHZvh5KLFThNco-77" value="" style="edgeStyle=orthogonalEdgeStyle;rounded=0;orthogonalLoop=1;jettySize=auto;html=1;" edge="1" parent="1" source="CO8JX9GHZvh5KLFThNco-78">
          <mxGeometry relative="1" as="geometry">
            <mxPoint x="2250.000000000001" y="1970" as="targetPoint" />
          </mxGeometry>
        </mxCell>
        <mxCell id="CO8JX9GHZvh5KLFThNco-78" value="Increase damage and range of weapon for X amount of sec" style="whiteSpace=wrap;html=1;" vertex="1" parent="1">
          <mxGeometry x="2190" y="1830" width="120" height="60" as="geometry" />
        </mxCell>
        <mxCell id="CO8JX9GHZvh5KLFThNco-79" value="Handgun" style="text;html=1;align=center;verticalAlign=middle;whiteSpace=wrap;rounded=0;" vertex="1" parent="1">
          <mxGeometry x="1930" y="1780" width="60" height="30" as="geometry" />
        </mxCell>
        <mxCell id="CO8JX9GHZvh5KLFThNco-80" value="AR" style="text;html=1;align=center;verticalAlign=middle;whiteSpace=wrap;rounded=0;" vertex="1" parent="1">
          <mxGeometry x="2075" y="1780" width="60" height="30" as="geometry" />
        </mxCell>
        <mxCell id="CO8JX9GHZvh5KLFThNco-81" value="Melee" style="text;html=1;align=center;verticalAlign=middle;whiteSpace=wrap;rounded=0;" vertex="1" parent="1">
          <mxGeometry x="2240" y="1780" width="60" height="30" as="geometry" />
        </mxCell>
        <mxCell id="CO8JX9GHZvh5KLFThNco-82" value="" style="edgeStyle=orthogonalEdgeStyle;rounded=0;orthogonalLoop=1;jettySize=auto;html=1;" edge="1" parent="1" source="CO8JX9GHZvh5KLFThNco-83" target="CO8JX9GHZvh5KLFThNco-152">
          <mxGeometry relative="1" as="geometry" />
        </mxCell>
        <mxCell id="CO8JX9GHZvh5KLFThNco-83" value="Start Cooldown Timer for X amount of sec" style="whiteSpace=wrap;html=1;" vertex="1" parent="1">
          <mxGeometry x="1870" y="1970" width="120" height="60" as="geometry" />
        </mxCell>
        <mxCell id="CO8JX9GHZvh5KLFThNco-84" value="Start Cooldown Timer for X amount of sec" style="whiteSpace=wrap;html=1;" vertex="1" parent="1">
          <mxGeometry x="2030.5" y="1970" width="120" height="60" as="geometry" />
        </mxCell>
        <mxCell id="CO8JX9GHZvh5KLFThNco-85" value="Start Cooldown Timer for X amount of sec" style="whiteSpace=wrap;html=1;" vertex="1" parent="1">
          <mxGeometry x="2190" y="1970" width="120" height="60" as="geometry" />
        </mxCell>
        <mxCell id="CO8JX9GHZvh5KLFThNco-86" value="" style="endArrow=none;html=1;rounded=0;fontSize=12;startSize=8;endSize=8;curved=1;" edge="1" parent="1">
          <mxGeometry width="50" height="50" relative="1" as="geometry">
            <mxPoint x="-295" y="1429" as="sourcePoint" />
            <mxPoint x="2693" y="1429" as="targetPoint" />
          </mxGeometry>
        </mxCell>
        <mxCell id="CO8JX9GHZvh5KLFThNco-87" value="" style="endArrow=none;html=1;rounded=0;fontSize=12;startSize=8;endSize=8;curved=1;" edge="1" parent="1">
          <mxGeometry width="50" height="50" relative="1" as="geometry">
            <mxPoint x="-295" y="1430" as="sourcePoint" />
            <mxPoint x="3759.7931034482754" y="1429" as="targetPoint" />
          </mxGeometry>
        </mxCell>
        <mxCell id="CO8JX9GHZvh5KLFThNco-88" value="" style="endArrow=classic;html=1;rounded=0;fontSize=12;startSize=8;endSize=8;curved=1;" edge="1" parent="1">
          <mxGeometry width="50" height="50" relative="1" as="geometry">
            <mxPoint x="2470.41" y="1430" as="sourcePoint" />
            <mxPoint x="2470.41" y="1450" as="targetPoint" />
          </mxGeometry>
        </mxCell>
        <mxCell id="CO8JX9GHZvh5KLFThNco-89" value="" style="edgeStyle=orthogonalEdgeStyle;rounded=0;orthogonalLoop=1;jettySize=auto;html=1;" edge="1" parent="1" source="CO8JX9GHZvh5KLFThNco-90" target="CO8JX9GHZvh5KLFThNco-92">
          <mxGeometry relative="1" as="geometry" />
        </mxCell>
        <mxCell id="CO8JX9GHZvh5KLFThNco-90" value="When player enters a new room" style="rhombus;whiteSpace=wrap;html=1;" vertex="1" parent="1">
          <mxGeometry x="2348" y="1450" width="245" height="90" as="geometry" />
        </mxCell>
        <mxCell id="CO8JX9GHZvh5KLFThNco-91" value="" style="edgeStyle=orthogonalEdgeStyle;rounded=0;orthogonalLoop=1;jettySize=auto;html=1;" edge="1" parent="1" source="CO8JX9GHZvh5KLFThNco-92" target="CO8JX9GHZvh5KLFThNco-94">
          <mxGeometry relative="1" as="geometry" />
        </mxCell>
        <mxCell id="CO8JX9GHZvh5KLFThNco-92" value="Force player to be in that room until all enemies are eliminated" style="whiteSpace=wrap;html=1;" vertex="1" parent="1">
          <mxGeometry x="2410.5" y="1560" width="120" height="60" as="geometry" />
        </mxCell>
        <mxCell id="CO8JX9GHZvh5KLFThNco-93" value="" style="edgeStyle=orthogonalEdgeStyle;rounded=0;orthogonalLoop=1;jettySize=auto;html=1;" edge="1" parent="1" source="CO8JX9GHZvh5KLFThNco-94" target="CO8JX9GHZvh5KLFThNco-127">
          <mxGeometry relative="1" as="geometry" />
        </mxCell>
        <mxCell id="CO8JX9GHZvh5KLFThNco-94" value="Door to the next room are unable to unlock till the prior requirements are fufilled" style="whiteSpace=wrap;html=1;" vertex="1" parent="1">
          <mxGeometry x="2405.25" y="1645" width="130.5" height="80" as="geometry" />
        </mxCell>
        <mxCell id="CO8JX9GHZvh5KLFThNco-95" value="" style="endArrow=classic;html=1;rounded=0;fontSize=12;startSize=8;endSize=8;curved=1;" edge="1" parent="1">
          <mxGeometry width="50" height="50" relative="1" as="geometry">
            <mxPoint x="2789.31" y="1430" as="sourcePoint" />
            <mxPoint x="2789.31" y="1450" as="targetPoint" />
          </mxGeometry>
        </mxCell>
        <mxCell id="CO8JX9GHZvh5KLFThNco-96" value="" style="edgeStyle=orthogonalEdgeStyle;rounded=0;orthogonalLoop=1;jettySize=auto;html=1;" edge="1" parent="1" source="CO8JX9GHZvh5KLFThNco-97" target="CO8JX9GHZvh5KLFThNco-99">
          <mxGeometry relative="1" as="geometry" />
        </mxCell>
        <mxCell id="CO8JX9GHZvh5KLFThNco-97" value="When the Escape key is pressed" style="rhombus;whiteSpace=wrap;html=1;" vertex="1" parent="1">
          <mxGeometry x="2667" y="1450" width="245" height="90" as="geometry" />
        </mxCell>
        <mxCell id="CO8JX9GHZvh5KLFThNco-98" value="" style="edgeStyle=orthogonalEdgeStyle;rounded=0;orthogonalLoop=1;jettySize=auto;html=1;" edge="1" parent="1" source="CO8JX9GHZvh5KLFThNco-99" target="CO8JX9GHZvh5KLFThNco-106">
          <mxGeometry relative="1" as="geometry" />
        </mxCell>
        <mxCell id="CO8JX9GHZvh5KLFThNco-99" value="freeze game&amp;nbsp;&amp;nbsp;" style="whiteSpace=wrap;html=1;" vertex="1" parent="1">
          <mxGeometry x="2729.5" y="1580" width="120" height="60" as="geometry" />
        </mxCell>
        <mxCell id="CO8JX9GHZvh5KLFThNco-100" value="" style="edgeStyle=orthogonalEdgeStyle;rounded=0;orthogonalLoop=1;jettySize=auto;html=1;" edge="1" parent="1" source="CO8JX9GHZvh5KLFThNco-106">
          <mxGeometry relative="1" as="geometry">
            <mxPoint x="2569" y="1817.0043887147335" as="targetPoint" />
          </mxGeometry>
        </mxCell>
        <mxCell id="CO8JX9GHZvh5KLFThNco-101" value="" style="edgeStyle=orthogonalEdgeStyle;rounded=0;orthogonalLoop=1;jettySize=auto;html=1;" edge="1" parent="1" source="CO8JX9GHZvh5KLFThNco-106" target="CO8JX9GHZvh5KLFThNco-109">
          <mxGeometry relative="1" as="geometry" />
        </mxCell>
        <mxCell id="CO8JX9GHZvh5KLFThNco-102" value="" style="edgeStyle=orthogonalEdgeStyle;rounded=0;orthogonalLoop=1;jettySize=auto;html=1;" edge="1" parent="1" source="CO8JX9GHZvh5KLFThNco-106" target="CO8JX9GHZvh5KLFThNco-109">
          <mxGeometry relative="1" as="geometry" />
        </mxCell>
        <mxCell id="CO8JX9GHZvh5KLFThNco-103" value="" style="edgeStyle=orthogonalEdgeStyle;rounded=0;orthogonalLoop=1;jettySize=auto;html=1;" edge="1" parent="1" source="CO8JX9GHZvh5KLFThNco-106" target="CO8JX9GHZvh5KLFThNco-109">
          <mxGeometry relative="1" as="geometry" />
        </mxCell>
        <mxCell id="CO8JX9GHZvh5KLFThNco-104" value="" style="edgeStyle=orthogonalEdgeStyle;rounded=0;orthogonalLoop=1;jettySize=auto;html=1;" edge="1" parent="1" source="CO8JX9GHZvh5KLFThNco-106" target="CO8JX9GHZvh5KLFThNco-109">
          <mxGeometry relative="1" as="geometry" />
        </mxCell>
        <mxCell id="CO8JX9GHZvh5KLFThNco-105" value="" style="edgeStyle=orthogonalEdgeStyle;rounded=0;orthogonalLoop=1;jettySize=auto;html=1;" edge="1" parent="1" source="CO8JX9GHZvh5KLFThNco-106" target="CO8JX9GHZvh5KLFThNco-111">
          <mxGeometry relative="1" as="geometry" />
        </mxCell>
        <mxCell id="CO8JX9GHZvh5KLFThNco-106" value="Display pause screen&lt;div&gt;with option&amp;nbsp;&lt;/div&gt;" style="whiteSpace=wrap;html=1;" vertex="1" parent="1">
          <mxGeometry x="2698.74" y="1688" width="120" height="60" as="geometry" />
        </mxCell>
        <mxCell id="CO8JX9GHZvh5KLFThNco-107" value="" style="edgeStyle=orthogonalEdgeStyle;rounded=0;orthogonalLoop=1;jettySize=auto;html=1;" edge="1" parent="1" source="CO8JX9GHZvh5KLFThNco-108" target="CO8JX9GHZvh5KLFThNco-144">
          <mxGeometry relative="1" as="geometry" />
        </mxCell>
        <mxCell id="CO8JX9GHZvh5KLFThNco-108" value="When Player pressed&lt;div&gt;&amp;nbsp;resume button or ESC&amp;nbsp;&lt;/div&gt;" style="rhombus;whiteSpace=wrap;html=1;" vertex="1" parent="1">
          <mxGeometry x="2489" y="1817" width="159.5" height="70" as="geometry" />
        </mxCell>
        <mxCell id="CO8JX9GHZvh5KLFThNco-109" value="When player&amp;nbsp;&lt;div&gt;pressed quit&amp;nbsp;&lt;/div&gt;" style="rhombus;whiteSpace=wrap;html=1;" vertex="1" parent="1">
          <mxGeometry x="2864.24" y="1817" width="140.5" height="80" as="geometry" />
        </mxCell>
        <mxCell id="CO8JX9GHZvh5KLFThNco-110" value="" style="edgeStyle=orthogonalEdgeStyle;rounded=0;orthogonalLoop=1;jettySize=auto;html=1;" edge="1" parent="1" source="CO8JX9GHZvh5KLFThNco-111" target="CO8JX9GHZvh5KLFThNco-114">
          <mxGeometry relative="1" as="geometry" />
        </mxCell>
        <mxCell id="CO8JX9GHZvh5KLFThNco-111" value="When player&lt;div&gt;pressed restart&lt;/div&gt;" style="rhombus;whiteSpace=wrap;html=1;" vertex="1" parent="1">
          <mxGeometry x="2693.49" y="1817" width="130.5" height="80" as="geometry" />
        </mxCell>
        <mxCell id="CO8JX9GHZvh5KLFThNco-112" value="" style="edgeStyle=orthogonalEdgeStyle;rounded=0;orthogonalLoop=1;jettySize=auto;html=1;" edge="1" parent="1" source="CO8JX9GHZvh5KLFThNco-114" target="CO8JX9GHZvh5KLFThNco-115">
          <mxGeometry relative="1" as="geometry" />
        </mxCell>
        <mxCell id="CO8JX9GHZvh5KLFThNco-113" value="" style="edgeStyle=orthogonalEdgeStyle;rounded=0;orthogonalLoop=1;jettySize=auto;html=1;exitX=0.559;exitY=0.89;exitDx=0;exitDy=0;exitPerimeter=0;" edge="1" parent="1" source="CO8JX9GHZvh5KLFThNco-114" target="CO8JX9GHZvh5KLFThNco-116">
          <mxGeometry relative="1" as="geometry">
            <mxPoint x="2749.238461538461" y="2046.986422045387" as="sourcePoint" />
            <Array as="points">
              <mxPoint x="2759.24" y="1998" />
              <mxPoint x="2759.24" y="2047" />
              <mxPoint x="2840.24" y="2047" />
            </Array>
          </mxGeometry>
        </mxCell>
        <mxCell id="CO8JX9GHZvh5KLFThNco-114" value="Confirmation&lt;div&gt;for restart&lt;/div&gt;" style="rhombus;whiteSpace=wrap;html=1;" vertex="1" parent="1">
          <mxGeometry x="2693.49" y="1927" width="130.5" height="80" as="geometry" />
        </mxCell>
        <mxCell id="CO8JX9GHZvh5KLFThNco-115" value="Restart to the original versio" style="whiteSpace=wrap;html=1;" vertex="1" parent="1">
          <mxGeometry x="2699.24" y="2217" width="120" height="60" as="geometry" />
        </mxCell>
        <mxCell id="CO8JX9GHZvh5KLFThNco-116" value="Return to pause menu" style="whiteSpace=wrap;html=1;" vertex="1" parent="1">
          <mxGeometry x="2779.24" y="2086.9999999999995" width="120" height="60" as="geometry" />
        </mxCell>
        <mxCell id="CO8JX9GHZvh5KLFThNco-117" value="Yes" style="text;html=1;align=center;verticalAlign=middle;whiteSpace=wrap;rounded=0;" vertex="1" parent="1">
          <mxGeometry x="2689.24" y="2027" width="60" height="30" as="geometry" />
        </mxCell>
        <mxCell id="CO8JX9GHZvh5KLFThNco-118" value="No" style="text;html=1;align=center;verticalAlign=middle;resizable=0;points=[];autosize=1;strokeColor=none;fillColor=none;" vertex="1" parent="1">
          <mxGeometry x="2779.24" y="2025" width="40" height="30" as="geometry" />
        </mxCell>
        <mxCell id="CO8JX9GHZvh5KLFThNco-119" value="" style="edgeStyle=orthogonalEdgeStyle;rounded=0;orthogonalLoop=1;jettySize=auto;html=1;" edge="1" parent="1" target="CO8JX9GHZvh5KLFThNco-122">
          <mxGeometry relative="1" as="geometry">
            <mxPoint x="2934.49" y="1897" as="sourcePoint" />
          </mxGeometry>
        </mxCell>
        <mxCell id="CO8JX9GHZvh5KLFThNco-120" value="" style="edgeStyle=orthogonalEdgeStyle;rounded=0;orthogonalLoop=1;jettySize=auto;html=1;" edge="1" parent="1" source="CO8JX9GHZvh5KLFThNco-122" target="CO8JX9GHZvh5KLFThNco-123">
          <mxGeometry relative="1" as="geometry" />
        </mxCell>
        <mxCell id="CO8JX9GHZvh5KLFThNco-121" value="" style="edgeStyle=orthogonalEdgeStyle;rounded=0;orthogonalLoop=1;jettySize=auto;html=1;exitX=0.559;exitY=0.89;exitDx=0;exitDy=0;exitPerimeter=0;" edge="1" parent="1" source="CO8JX9GHZvh5KLFThNco-122">
          <mxGeometry relative="1" as="geometry">
            <mxPoint x="2924.488461538461" y="2046.986422045387" as="sourcePoint" />
            <Array as="points">
              <mxPoint x="2934.49" y="1998" />
              <mxPoint x="2934.49" y="2047" />
              <mxPoint x="3015.49" y="2047" />
            </Array>
            <mxPoint x="3015.4799999999996" y="2086.9999999999995" as="targetPoint" />
          </mxGeometry>
        </mxCell>
        <mxCell id="CO8JX9GHZvh5KLFThNco-122" value="Confirmation&lt;div&gt;for restart&lt;/div&gt;" style="rhombus;whiteSpace=wrap;html=1;" vertex="1" parent="1">
          <mxGeometry x="2868.74" y="1927" width="130.5" height="80" as="geometry" />
        </mxCell>
        <mxCell id="CO8JX9GHZvh5KLFThNco-123" value="Exit the Game&amp;nbsp;" style="whiteSpace=wrap;html=1;" vertex="1" parent="1">
          <mxGeometry x="2873.99" y="2217" width="120" height="60" as="geometry" />
        </mxCell>
        <mxCell id="CO8JX9GHZvh5KLFThNco-124" value="Return to pause menu" style="whiteSpace=wrap;html=1;" vertex="1" parent="1">
          <mxGeometry x="2985.25" y="2089.9999999999995" width="120" height="60" as="geometry" />
        </mxCell>
        <mxCell id="CO8JX9GHZvh5KLFThNco-125" value="Yes" style="text;html=1;align=center;verticalAlign=middle;whiteSpace=wrap;rounded=0;" vertex="1" parent="1">
          <mxGeometry x="2864.49" y="2027" width="60" height="30" as="geometry" />
        </mxCell>
        <mxCell id="CO8JX9GHZvh5KLFThNco-126" value="No" style="text;html=1;align=center;verticalAlign=middle;resizable=0;points=[];autosize=1;strokeColor=none;fillColor=none;" vertex="1" parent="1">
          <mxGeometry x="2954.49" y="2025" width="40" height="30" as="geometry" />
        </mxCell>
        <mxCell id="CO8JX9GHZvh5KLFThNco-127" value="Door to the previous room are also temporary closed off" style="whiteSpace=wrap;html=1;" vertex="1" parent="1">
          <mxGeometry x="2405.75" y="1760" width="130" height="70" as="geometry" />
        </mxCell>
        <mxCell id="CO8JX9GHZvh5KLFThNco-128" value="" style="endArrow=classic;html=1;rounded=0;fontSize=12;startSize=8;endSize=8;curved=1;" edge="1" parent="1">
          <mxGeometry width="50" height="50" relative="1" as="geometry">
            <mxPoint x="3328.31" y="1431" as="sourcePoint" />
            <mxPoint x="3328.31" y="1451" as="targetPoint" />
          </mxGeometry>
        </mxCell>
        <mxCell id="CO8JX9GHZvh5KLFThNco-129" value="" style="edgeStyle=orthogonalEdgeStyle;rounded=0;orthogonalLoop=1;jettySize=auto;html=1;" edge="1" parent="1" source="CO8JX9GHZvh5KLFThNco-130" target="CO8JX9GHZvh5KLFThNco-132">
          <mxGeometry relative="1" as="geometry" />
        </mxCell>
        <mxCell id="CO8JX9GHZvh5KLFThNco-130" value="Enemies Interaction" style="rounded=0;whiteSpace=wrap;html=1;" vertex="1" parent="1">
          <mxGeometry x="3219" y="1451" width="217.5" height="60" as="geometry" />
        </mxCell>
        <mxCell id="CO8JX9GHZvh5KLFThNco-131" value="" style="edgeStyle=orthogonalEdgeStyle;rounded=0;orthogonalLoop=1;jettySize=auto;html=1;" edge="1" parent="1" source="CO8JX9GHZvh5KLFThNco-132" target="CO8JX9GHZvh5KLFThNco-135">
          <mxGeometry relative="1" as="geometry" />
        </mxCell>
        <mxCell id="CO8JX9GHZvh5KLFThNco-132" value="When the player enter the enemies FOV,&amp;nbsp; begin to target towards the player" style="whiteSpace=wrap;html=1;rounded=0;" vertex="1" parent="1">
          <mxGeometry x="3267.75" y="1561" width="120" height="60" as="geometry" />
        </mxCell>
        <mxCell id="CO8JX9GHZvh5KLFThNco-133" value="" style="edgeStyle=orthogonalEdgeStyle;rounded=0;orthogonalLoop=1;jettySize=auto;html=1;" edge="1" parent="1" source="CO8JX9GHZvh5KLFThNco-135" target="CO8JX9GHZvh5KLFThNco-137">
          <mxGeometry relative="1" as="geometry" />
        </mxCell>
        <mxCell id="CO8JX9GHZvh5KLFThNco-134" value="" style="edgeStyle=orthogonalEdgeStyle;rounded=0;orthogonalLoop=1;jettySize=auto;html=1;" edge="1" parent="1" source="CO8JX9GHZvh5KLFThNco-135" target="CO8JX9GHZvh5KLFThNco-137">
          <mxGeometry relative="1" as="geometry" />
        </mxCell>
        <mxCell id="CO8JX9GHZvh5KLFThNco-135" value="Melee or&amp;nbsp;&lt;div&gt;Projectile enemy&lt;/div&gt;" style="rhombus;whiteSpace=wrap;html=1;rounded=0;" vertex="1" parent="1">
          <mxGeometry x="3259.62" y="1654" width="136.25" height="85" as="geometry" />
        </mxCell>
        <mxCell id="CO8JX9GHZvh5KLFThNco-136" value="" style="edgeStyle=orthogonalEdgeStyle;rounded=0;orthogonalLoop=1;jettySize=auto;html=1;" edge="1" parent="1" source="CO8JX9GHZvh5KLFThNco-137" target="CO8JX9GHZvh5KLFThNco-142">
          <mxGeometry relative="1" as="geometry" />
        </mxCell>
        <mxCell id="CO8JX9GHZvh5KLFThNco-137" value="Enemy start to walk toward player until they are in the effective attack range" style="whiteSpace=wrap;html=1;rounded=0;" vertex="1" parent="1">
          <mxGeometry x="3182.005" y="1778" width="120" height="60" as="geometry" />
        </mxCell>
        <mxCell id="CO8JX9GHZvh5KLFThNco-138" value="Melee" style="text;html=1;align=center;verticalAlign=middle;whiteSpace=wrap;rounded=0;" vertex="1" parent="1">
          <mxGeometry x="3247" y="1739" width="60" height="30" as="geometry" />
        </mxCell>
        <mxCell id="CO8JX9GHZvh5KLFThNco-139" value="" style="edgeStyle=orthogonalEdgeStyle;rounded=0;orthogonalLoop=1;jettySize=auto;html=1;" edge="1" parent="1">
          <mxGeometry relative="1" as="geometry">
            <mxPoint x="3327" y="1759.0042528735637" as="sourcePoint" />
            <mxPoint x="3410" y="1780" as="targetPoint" />
          </mxGeometry>
        </mxCell>
        <mxCell id="CO8JX9GHZvh5KLFThNco-140" value="Enemy begin to fire projectile. Depending on tier, attacks will be easier/harder to dodge" style="whiteSpace=wrap;html=1;rounded=0;" vertex="1" parent="1">
          <mxGeometry x="3345" y="1780" width="129.99" height="70" as="geometry" />
        </mxCell>
        <mxCell id="CO8JX9GHZvh5KLFThNco-141" value="Projectile" style="text;html=1;align=center;verticalAlign=middle;whiteSpace=wrap;rounded=0;" vertex="1" parent="1">
          <mxGeometry x="3335.87" y="1739" width="60" height="30" as="geometry" />
        </mxCell>
        <mxCell id="CO8JX9GHZvh5KLFThNco-142" value="Swing attacks at players(EXP: a sword spinning around enemy with x second for Tier 1)" style="whiteSpace=wrap;html=1;rounded=0;" vertex="1" parent="1">
          <mxGeometry x="3167.01" y="1880" width="150" height="80" as="geometry" />
        </mxCell>
        <mxCell id="CO8JX9GHZvh5KLFThNco-143" value="" style="edgeStyle=orthogonalEdgeStyle;rounded=0;orthogonalLoop=1;jettySize=auto;html=1;" edge="1" parent="1" source="CO8JX9GHZvh5KLFThNco-144" target="CO8JX9GHZvh5KLFThNco-145">
          <mxGeometry relative="1" as="geometry" />
        </mxCell>
        <mxCell id="CO8JX9GHZvh5KLFThNco-144" value="Unfreeze game" style="whiteSpace=wrap;html=1;" vertex="1" parent="1">
          <mxGeometry x="2508.75" y="1927" width="120" height="60" as="geometry" />
        </mxCell>
        <mxCell id="CO8JX9GHZvh5KLFThNco-145" value="Return to normal gameplay" style="whiteSpace=wrap;html=1;" vertex="1" parent="1">
          <mxGeometry x="2508.75" y="2067" width="120" height="60" as="geometry" />
        </mxCell>
        <mxCell id="CO8JX9GHZvh5KLFThNco-146" value="" style="edgeStyle=orthogonalEdgeStyle;rounded=0;orthogonalLoop=1;jettySize=auto;html=1;" edge="1" parent="1" source="CO8JX9GHZvh5KLFThNco-147" target="CO8JX9GHZvh5KLFThNco-149">
          <mxGeometry relative="1" as="geometry" />
        </mxCell>
        <mxCell id="CO8JX9GHZvh5KLFThNco-147" value="Interac button press near shop&amp;nbsp;" style="rhombus;whiteSpace=wrap;html=1;" vertex="1" parent="1">
          <mxGeometry x="-495" y="1450" width="160" height="79" as="geometry" />
        </mxCell>
        <mxCell id="CO8JX9GHZvh5KLFThNco-148" value="" style="edgeStyle=orthogonalEdgeStyle;rounded=0;orthogonalLoop=1;jettySize=auto;html=1;" edge="1" parent="1" source="CO8JX9GHZvh5KLFThNco-149" target="CO8JX9GHZvh5KLFThNco-150">
          <mxGeometry relative="1" as="geometry" />
        </mxCell>
        <mxCell id="CO8JX9GHZvh5KLFThNco-149" value="Open Shop menu" style="whiteSpace=wrap;html=1;" vertex="1" parent="1">
          <mxGeometry x="-475" y="1594" width="120" height="60" as="geometry" />
        </mxCell>
        <mxCell id="CO8JX9GHZvh5KLFThNco-150" value="Present upgrade and items option" style="whiteSpace=wrap;html=1;" vertex="1" parent="1">
          <mxGeometry x="-475" y="1734" width="120" height="60" as="geometry" />
        </mxCell>
        <mxCell id="CO8JX9GHZvh5KLFThNco-151" value="Reduce MP by 20" style="whiteSpace=wrap;html=1;" vertex="1" parent="1">
          <mxGeometry x="1652.5" y="1720" width="120" height="60" as="geometry" />
        </mxCell>
        <mxCell id="CO8JX9GHZvh5KLFThNco-152" value="Reduce MP by 20" style="whiteSpace=wrap;html=1;" vertex="1" parent="1">
          <mxGeometry x="1870" y="2110" width="120" height="60" as="geometry" />
        </mxCell>
        <mxCell id="CO8JX9GHZvh5KLFThNco-153" value="" style="edgeStyle=orthogonalEdgeStyle;rounded=0;orthogonalLoop=1;jettySize=auto;html=1;" edge="1" parent="1" target="CO8JX9GHZvh5KLFThNco-154">
          <mxGeometry relative="1" as="geometry">
            <mxPoint x="2090.5" y="2030" as="sourcePoint" />
          </mxGeometry>
        </mxCell>
        <mxCell id="CO8JX9GHZvh5KLFThNco-154" value="Reduce MP by 20" style="whiteSpace=wrap;html=1;" vertex="1" parent="1">
          <mxGeometry x="2030.5" y="2110" width="120" height="60" as="geometry" />
        </mxCell>
        <mxCell id="CO8JX9GHZvh5KLFThNco-155" value="" style="edgeStyle=orthogonalEdgeStyle;rounded=0;orthogonalLoop=1;jettySize=auto;html=1;" edge="1" parent="1" target="CO8JX9GHZvh5KLFThNco-156">
          <mxGeometry relative="1" as="geometry">
            <mxPoint x="2250" y="2030" as="sourcePoint" />
          </mxGeometry>
        </mxCell>
        <mxCell id="CO8JX9GHZvh5KLFThNco-156" value="Reduce MP by 20" style="whiteSpace=wrap;html=1;" vertex="1" parent="1">
          <mxGeometry x="2190" y="2110" width="120" height="60" as="geometry" />
        </mxCell>
        <mxCell id="CO8JX9GHZvh5KLFThNco-157" value="Player Spawn in to map" style="rounded=1;whiteSpace=wrap;html=1;" vertex="1" parent="1">
          <mxGeometry x="-355" y="1270" width="120" height="60" as="geometry" />
        </mxCell>
      </root>
    </mxGraphModel>
  </diagram>
</mxfile>
